<svg width="44" height="44" viewBox="0 0 44 44" fill="none" xmlns="http://www.w3.org/2000/svg">
<path d="M23.5723 38.6992L37.2441 25.0273C38.502 23.7695 38.7891 22.9082 38.7891 20.9121V15.7578C38.7891 14.0078 38.3652 13.1875 36.957 11.7656L33.8809 8.70312C32.459 7.28125 31.6387 6.87109 29.9023 6.87109H24.748C22.7383 6.87109 21.9453 7.19922 20.6875 8.4707L7.00195 22.1426C4.60938 24.5352 4.60938 27.3242 7.01562 29.7168L15.998 38.6992C18.3906 41.1055 21.1797 41.1055 23.5723 38.6992ZM27.0312 20.2285C25.7051 20.2285 24.666 19.2031 24.666 17.877C24.666 16.5508 25.7051 15.5117 27.0312 15.5117C28.3574 15.5117 29.3965 16.5508 29.3965 17.877C29.3965 19.2031 28.3574 20.2285 27.0312 20.2285Z" fill="white"/>
</svg>
