<svg width="20" height="20" viewBox="0 0 20 20" fill="none" xmlns="http://www.w3.org/2000/svg">
<g clip-path="url(#clip0_820_2247)">
<path d="M16.9308 3.63318C15.6561 3.04828 14.2892 2.61735 12.8599 2.37054C12.8339 2.36578 12.8079 2.37768 12.7945 2.40149C12.6187 2.71417 12.4239 3.12209 12.2876 3.44271C10.7503 3.21256 9.22099 3.21256 7.71527 3.44271C7.57887 3.11496 7.37707 2.71417 7.20048 2.40149C7.18707 2.37848 7.16107 2.36657 7.13504 2.37054C5.70659 2.61656 4.33963 3.04749 3.06411 3.63318C3.05307 3.63795 3.04361 3.64589 3.03732 3.6562C0.444493 7.52983 -0.265792 11.3083 0.0826502 15.0398C0.0842268 15.0581 0.094475 15.0756 0.108665 15.0866C1.81934 16.3429 3.47642 17.1056 5.10273 17.6111C5.12876 17.6191 5.15634 17.6096 5.1729 17.5881C5.55761 17.0628 5.90054 16.5088 6.19456 15.9263C6.21192 15.8922 6.19535 15.8517 6.15989 15.8382C5.61594 15.6319 5.098 15.3803 4.59978 15.0946C4.56037 15.0716 4.55721 15.0152 4.59347 14.9882C4.69831 14.9097 4.80318 14.8279 4.9033 14.7454C4.92141 14.7303 4.94665 14.7271 4.96794 14.7367C8.24107 16.231 11.7846 16.231 15.0191 14.7367C15.0404 14.7263 15.0657 14.7295 15.0846 14.7446C15.1847 14.8271 15.2896 14.9097 15.3952 14.9882C15.4314 15.0152 15.4291 15.0716 15.3897 15.0946C14.8914 15.3858 14.3735 15.6319 13.8288 15.8374C13.7933 15.8509 13.7775 15.8922 13.7949 15.9263C14.0952 16.508 14.4381 17.0619 14.8157 17.5873C14.8315 17.6096 14.8599 17.6191 14.8859 17.6111C16.5201 17.1056 18.1772 16.3429 19.8879 15.0866C19.9028 15.0756 19.9123 15.0589 19.9139 15.0406C20.3309 10.7265 19.2154 6.97907 16.9568 3.65699C16.9513 3.64589 16.9419 3.63795 16.9308 3.63318ZM6.68335 12.7677C5.69792 12.7677 4.88594 11.863 4.88594 10.7519C4.88594 9.64085 5.68217 8.73614 6.68335 8.73614C7.69239 8.73614 8.49651 9.64879 8.48073 10.7519C8.48073 11.863 7.68451 12.7677 6.68335 12.7677ZM13.329 12.7677C12.3435 12.7677 11.5316 11.863 11.5316 10.7519C11.5316 9.64085 12.3278 8.73614 13.329 8.73614C14.338 8.73614 15.1421 9.64879 15.1264 10.7519C15.1264 11.863 14.338 12.7677 13.329 12.7677Z" fill="white"/>
</g>
<defs>
<clipPath id="clip0_820_2247">
<rect width="20" height="20" fill="white"/>
</clipPath>
</defs>
</svg>
