<svg width="44" height="44" viewBox="0 0 44 44" fill="none" xmlns="http://www.w3.org/2000/svg">
<g clip-path="url(#clip0_1502_10238)">
<path fill-rule="evenodd" clip-rule="evenodd" d="M22 38C30.8366 38 38 30.8366 38 22C38 13.1634 30.8366 6 22 6C13.1634 6 6 13.1634 6 22C6 30.8366 13.1634 38 22 38ZM23.595 32.8852C28.9142 32.1126 33 27.5334 33 22C33 16.4666 28.9142 11.8874 23.595 11.1148C23.1206 11.0459 22.8834 11.0114 22.6381 11.1066C22.4413 11.1831 22.2334 11.3629 22.1295 11.5468C22 11.7758 22 12.0505 22 12.6V31.4C22 31.9495 22 32.2242 22.1295 32.4532C22.2334 32.6371 22.4413 32.8169 22.6381 32.8934C22.8834 32.9886 23.1206 32.9541 23.595 32.8852Z" fill="#FAFAFA"/>
</g>
<defs>
<clipPath id="clip0_1502_10238">
<rect width="32" height="32" fill="white" transform="translate(6 6)"/>
</clipPath>
</defs>
</svg>
