<svg width="27" height="27" viewBox="0 0 27 27" fill="none" xmlns="http://www.w3.org/2000/svg">
<path fill-rule="evenodd" clip-rule="evenodd" d="M27 13.5C27 20.9558 20.9558 27 13.5 27C6.04416 27 0 20.9558 0 13.5C0 6.04416 6.04416 0 13.5 0C20.9558 0 27 6.04416 27 13.5ZM20.5399 11.5346C21.6195 11.5346 22.5053 12.4046 22.5053 13.5C22.5053 14.3054 22.0221 14.9981 21.3456 15.3044C21.3777 15.4975 21.3939 15.7071 21.3939 15.9005C21.3939 18.9451 17.8659 21.394 13.5162 21.394C9.16656 21.394 5.63849 18.9289 5.63849 15.9005C5.63849 15.6909 5.6544 15.4975 5.68683 15.3044C5.00999 14.9981 4.52682 14.3216 4.52682 13.5162C4.52682 12.4367 5.39676 11.5508 6.4922 11.5508C7.00217 11.5501 7.49273 11.7463 7.86151 12.0986C9.23082 11.1157 11.1157 10.4875 13.2099 10.423L14.209 5.71897C14.2249 5.62228 14.2732 5.5418 14.3537 5.49346C14.4183 5.44511 14.515 5.4289 14.6117 5.44511L17.8818 6.13787C18.1073 5.67063 18.5908 5.34842 19.1385 5.34842C19.9117 5.34842 20.5399 5.97662 20.5399 6.74986C20.5399 7.5234 19.9117 8.1516 19.1385 8.1516C18.3812 8.1516 17.7692 7.55553 17.7367 6.81442L14.8047 6.18622L13.9027 10.4071C15.9648 10.4875 17.8175 11.1157 19.1706 12.0824C19.525 11.7439 20.0084 11.5346 20.5399 11.5346ZM10.407 13.5C9.6335 13.5 9.0053 14.1282 9.0053 14.9014C9.0053 15.6747 9.6335 16.3191 10.407 16.3032C11.1803 16.3032 11.8085 15.6747 11.8085 14.9014C11.8085 14.1282 11.1803 13.5 10.407 13.5ZM13.5162 19.6541C14.0477 19.6541 15.8843 19.5895 16.8509 18.6229C16.9797 18.4779 16.9797 18.2523 16.8509 18.1073C16.7059 17.9626 16.4803 17.9626 16.3353 18.1073C15.7392 18.7196 14.4345 18.9289 13.5162 18.9289C12.5979 18.9289 11.3091 18.7196 10.6968 18.1073C10.5518 17.9626 10.3263 17.9626 10.1812 18.1073C10.0365 18.2523 10.0365 18.4779 10.1812 18.6229C11.1319 19.5733 12.9685 19.6541 13.5162 19.6541ZM15.1915 14.9177C15.1915 15.6909 15.8197 16.3191 16.593 16.3191C17.3665 16.3191 17.9947 15.6747 17.9947 14.9177C17.9947 14.1444 17.3665 13.5162 16.593 13.5162C15.8197 13.5162 15.1915 14.1444 15.1915 14.9177Z" fill="white"/>
</svg>
