<svg width="92" height="27" viewBox="0 0 92 27" fill="none" xmlns="http://www.w3.org/2000/svg">
<g clip-path="url(#clip0_32_404)">
<path d="M2.99788 14.4075C2.99788 15.4673 3.23049 16.281 3.53452 16.7732C3.93315 17.418 4.52771 17.6911 5.13384 17.6911C5.91565 17.6911 6.63085 17.4971 8.00915 15.5909C9.11332 14.063 10.4144 11.9183 11.2898 10.5738L12.7724 8.29595C13.8022 6.714 14.9942 4.95543 16.3609 3.76342C17.4767 2.79051 18.6803 2.25 19.8916 2.25C21.9253 2.25 23.8624 3.4285 25.3449 5.63878C26.9674 8.05948 27.755 11.1085 27.755 14.255C27.755 16.1256 27.3863 17.5 26.7589 18.5858C26.1528 19.636 24.9714 20.6851 22.9841 20.6851V17.6911C24.6857 17.6911 25.1104 16.1275 25.1104 14.338C25.1104 11.788 24.5158 8.95807 23.2061 6.936C22.2766 5.50172 21.072 4.62533 19.7468 4.62533C18.3135 4.62533 17.1601 5.70634 15.8639 7.63383C15.1747 8.65789 14.4672 9.90589 13.6729 11.3141L12.7984 12.8632C11.0418 15.9779 10.5968 16.6873 9.7185 17.8581C8.17902 19.9081 6.86443 20.6851 5.13384 20.6851C3.08089 20.6851 1.78271 19.7962 0.978702 18.4565C0.322373 17.3649 0 15.9325 0 14.3004L2.99788 14.4075Z" fill="white"/>
<path d="M2.36377 5.85016C3.7382 3.73157 5.72167 2.25 7.99662 2.25C9.3141 2.25 10.6239 2.63994 11.9915 3.75666C13.4876 4.97763 15.0821 6.98812 17.0713 10.3016L17.7846 11.4907C19.5065 14.3593 20.4862 15.835 21.0595 16.5309C21.7969 17.4247 22.3133 17.6911 22.9841 17.6911C24.6857 17.6911 25.1104 16.1275 25.1104 14.338L27.755 14.255C27.755 16.1256 27.3863 17.5 26.7589 18.5858C26.1528 19.636 24.9714 20.6851 22.9841 20.6851C21.7486 20.6851 20.6541 20.4168 19.4438 19.275C18.5133 18.3986 17.4256 16.8417 16.5887 15.4422L14.0995 11.2842C12.8506 9.19744 11.7049 7.64155 11.0418 6.93696C10.3285 6.17929 9.41159 5.26429 7.94836 5.26429C6.76407 5.26429 5.75834 6.09532 4.9167 7.36647L2.36377 5.85016Z" fill="white"/>
<path d="M7.94834 5.26429C6.76405 5.26429 5.75832 6.09532 4.91668 7.36647C3.7266 9.16269 2.99788 11.8382 2.99788 14.4075C2.99788 15.4673 3.23049 16.281 3.53453 16.7732L0.978703 18.4565C0.322373 17.3649 0 15.9325 0 14.3004C0 11.3324 0.81462 8.239 2.36375 5.85016C3.73818 3.73157 5.72165 2.25 7.9966 2.25L7.94834 5.26429Z" fill="white"/>
<path d="M33.5828 2.83301H37.0507L42.947 13.5003L48.8443 2.83301H52.237V20.3609H49.408V6.92734L44.2365 16.2298H41.5823L36.4117 6.92734V20.3609H33.5828V2.83301ZM61.1013 9.36831C59.0725 9.36831 57.8505 10.8952 57.5581 12.786H64.4437C64.3019 10.8383 63.1784 9.36831 61.1013 9.36831ZM54.7532 13.8632C54.7532 9.88468 57.3245 6.98911 61.1505 6.98911C64.9138 6.98911 67.1608 9.84801 67.1608 14.0755V14.8525H57.5581C57.8988 16.9093 59.2636 18.2953 61.4642 18.2953C63.2199 18.2953 64.3173 17.7597 65.3578 16.78L66.8606 18.6206C65.4446 19.9227 63.6436 20.6736 61.3638 20.6736C57.2222 20.6736 54.7532 17.6535 54.7532 13.8632V13.8632ZM70.591 9.61926H67.987V7.3028H70.591V3.47196H73.3206V7.3028H77.2769V9.61926H73.3206V15.4905C73.3206 17.4952 73.9615 18.2075 75.5367 18.2075C76.2557 18.2075 76.6679 18.1457 77.2769 18.0444V20.3358C76.5183 20.55 75.7944 20.6485 75.0106 20.6485C72.0639 20.6485 70.591 19.0385 70.591 15.8158V9.61926ZM88.7704 11.872C88.2222 10.4879 86.9993 9.46869 85.2021 9.46869C82.8663 9.46869 81.3712 11.1259 81.3712 13.8256C81.3712 16.4576 82.7476 18.195 85.0901 18.195C86.9317 18.195 88.2463 17.1236 88.7704 15.7907V11.872ZM91.4999 20.3609H88.8206V18.5328C88.0716 19.609 86.7087 20.6736 84.5014 20.6736C80.9514 20.6736 78.5789 17.7018 78.5789 13.8256C78.5789 9.91267 81.0083 6.98911 84.6519 6.98911C86.453 6.98911 87.866 7.70915 88.8206 8.9803V7.3028H91.4999V20.3609Z" fill="white"/>
</g>
<defs>
<clipPath id="clip0_32_404">
<rect width="91.5" height="27" fill="white"/>
</clipPath>
</defs>
</svg>
