<svg width="159" height="27" viewBox="0 0 159 27" fill="none" xmlns="http://www.w3.org/2000/svg">
<g clip-path="url(#clip0_32_411)">
<path d="M45.9044 9.71419V17.7964H47.9196C48.4339 17.7888 48.9414 17.6781 49.4121 17.4709C49.8829 17.2636 50.3073 16.9641 50.6603 16.59C51.3847 15.823 51.7811 14.8035 51.7649 13.7486C51.7803 13.2247 51.692 12.7028 51.5051 12.2131C51.3181 11.7234 51.0363 11.2754 50.6757 10.8949C50.3212 10.5203 49.8939 10.2222 49.4199 10.0189C48.9459 9.81569 48.4353 9.71163 47.9196 9.71316H45.9055L45.9044 9.71419ZM47.9196 7.18008C51.6755 7.18008 54.5169 10.0903 54.5169 13.7486C54.5169 17.407 51.6755 20.3336 47.9196 20.3336H43.4751C43.4328 20.3331 43.3909 20.3242 43.352 20.3075C43.313 20.2908 43.2778 20.2665 43.2482 20.2362C43.2186 20.2059 43.1953 20.17 43.1796 20.1306C43.1638 20.0913 43.156 20.0492 43.1566 20.0068V7.52022C43.1566 7.33936 43.2994 7.19241 43.4751 7.19241L47.9196 7.18008V7.18008ZM64.1981 18.078C65.904 18.0831 67.4444 17.0339 68.101 15.4195C68.4227 14.6308 68.5087 13.7656 68.3485 12.929C68.1884 12.0923 67.789 11.3201 67.1988 10.7058C66.6189 10.1017 65.8694 9.68769 65.0492 9.51853C64.2291 9.34936 63.3769 9.43299 62.6053 9.75838C61.0289 10.4243 59.9993 11.9996 59.9962 13.7486C59.9962 16.1327 61.8747 18.0667 64.1991 18.078H64.1981ZM64.1991 6.88207C68.1524 6.88207 71.1746 9.99781 71.1746 13.7486C71.1746 17.4994 68.1524 20.6152 64.1981 20.6152C60.2449 20.6152 57.2483 17.5149 57.2483 13.7486C57.2483 9.9824 60.2706 6.88207 64.1981 6.88207H64.1991ZM80.7777 18.078C83.1032 18.0718 84.9848 16.1358 84.9828 13.7517C84.9797 11.3656 83.094 9.43365 80.7695 9.43262C78.443 9.43262 76.5563 11.3635 76.5532 13.7486C76.5532 14.8975 76.9982 15.9991 77.7904 16.8109C78.1783 17.211 78.6423 17.5293 79.1552 17.7469C79.6682 17.9645 80.2195 18.0771 80.7767 18.078H80.7777ZM80.7767 6.88207C84.7176 6.88207 87.7399 9.9824 87.7399 13.7486C87.7399 17.5149 84.7053 20.6152 80.7767 20.6152C76.8491 20.6152 73.8012 17.5149 73.8012 13.7486C73.8012 9.9824 76.8235 6.88207 80.7767 6.88207ZM96.9576 9.71419H94.1162V13.1927H96.9576C97.1821 13.2026 97.4063 13.1665 97.6162 13.0864C97.8262 13.0063 98.0175 12.8841 98.1784 12.7272C98.5073 12.4086 98.6943 11.9667 98.6984 11.5022C98.7067 11.2666 98.6673 11.0317 98.5825 10.8117C98.4977 10.5917 98.3694 10.391 98.2051 10.2218C98.0439 10.0553 97.8496 9.92442 97.6348 9.83752C97.4199 9.75063 97.1893 9.70966 96.9576 9.71727V9.71419ZM91.3674 7.52022C91.3674 7.33936 91.5112 7.19241 91.6869 7.19241H97.0367C99.5873 7.19241 101.433 9.10892 101.433 11.5156C101.452 13.1434 100.564 14.6385 99.1444 15.3671L101.612 19.8404C101.646 19.8918 101.665 19.9516 101.667 20.0133C101.669 20.075 101.654 20.1361 101.624 20.1897C101.594 20.2426 101.55 20.2858 101.496 20.3142C101.443 20.3426 101.382 20.3551 101.322 20.3501H99.1567C99.0967 20.3509 99.0376 20.3348 98.9863 20.3035C98.935 20.2722 98.8937 20.2271 98.8669 20.1733L96.489 15.7463H94.106V19.9966C94.1066 20.039 94.0989 20.0812 94.0833 20.1207C94.0676 20.1601 94.0443 20.1961 94.0147 20.2266C93.9851 20.257 93.9498 20.2814 93.9108 20.2981C93.8718 20.3149 93.8299 20.3238 93.7874 20.3244H91.7013C91.6589 20.3238 91.6169 20.3149 91.5779 20.2981C91.5389 20.2814 91.5036 20.257 91.474 20.2266C91.4444 20.1961 91.4211 20.1601 91.4055 20.1207C91.3898 20.0812 91.3821 20.039 91.3828 19.9966L91.3684 7.52125L91.3674 7.52022ZM108.597 9.77585V17.8591H110.612C111.126 17.8521 111.633 17.7421 112.104 17.5356C112.575 17.3291 113 17.0303 113.353 16.6568C114.078 15.8907 114.475 14.872 114.46 13.8175C114.476 13.2929 114.389 12.7702 114.203 12.2795C114.016 11.7889 113.734 11.34 113.374 10.9586C113.019 10.5834 112.591 10.2849 112.116 10.0816C111.641 9.87836 111.129 9.77464 110.613 9.77687L108.597 9.77585V9.77585ZM110.612 7.23865C114.368 7.23865 117.209 10.152 117.209 13.8175C117.209 17.483 114.368 20.3963 110.612 20.3963H106.18C106.138 20.3958 106.096 20.3868 106.057 20.3701C106.018 20.3533 105.983 20.329 105.953 20.2985C105.924 20.2681 105.9 20.2321 105.885 20.1926C105.869 20.1531 105.861 20.1109 105.862 20.0685V7.58291C105.862 7.40102 106.005 7.25407 106.18 7.25407L110.613 7.23865H110.612ZM125.59 10.453L124.031 14.7752H127.146L125.59 10.453V10.453ZM123.117 17.2179L122.096 20.0952C122.076 20.1629 122.033 20.2219 121.976 20.2628C121.918 20.3037 121.848 20.3243 121.778 20.3213H119.564C119.508 20.3265 119.451 20.3165 119.4 20.2923C119.349 20.2681 119.305 20.2305 119.273 20.1836C119.241 20.1361 119.222 20.0811 119.217 20.0238C119.212 19.9666 119.222 19.9091 119.246 19.8568L124.028 7.38252C124.051 7.31674 124.094 7.26005 124.151 7.22109C124.209 7.18213 124.277 7.16304 124.347 7.16672H126.823C126.893 7.16281 126.962 7.18179 127.019 7.22077C127.077 7.25974 127.121 7.31656 127.143 7.38252L131.925 19.8568C131.949 19.9091 131.959 19.9667 131.954 20.024C131.949 20.0812 131.929 20.1362 131.897 20.1836C131.865 20.2303 131.821 20.2677 131.77 20.2917C131.719 20.3158 131.662 20.3256 131.606 20.3203H129.393C129.323 20.3233 129.253 20.3027 129.195 20.2618C129.138 20.2208 129.095 20.1619 129.075 20.0942L128.054 17.2168H123.117V17.2179ZM134.491 10.7336C134.491 8.66807 136.232 6.88207 138.981 6.88207C140.461 6.84901 141.895 7.40275 142.968 8.42247C143.001 8.4534 143.027 8.49067 143.045 8.53202C143.063 8.57337 143.072 8.61791 143.072 8.66293C143.072 8.70795 143.063 8.7525 143.045 8.79385C143.027 8.83519 143.001 8.87247 142.968 8.9034L141.742 10.152C141.713 10.1823 141.678 10.2064 141.639 10.2229C141.6 10.2394 141.558 10.2478 141.516 10.2478C141.474 10.2478 141.432 10.2394 141.393 10.2229C141.355 10.2064 141.319 10.1823 141.29 10.152C140.713 9.61073 139.954 9.30408 139.163 9.29184C138.063 9.29184 137.251 9.94643 137.251 10.7017C137.251 13.1434 143.748 11.7345 143.748 16.4328C143.745 18.8138 141.991 20.6152 138.89 20.6152C138.028 20.624 137.174 20.4595 136.378 20.1315C135.581 19.8035 134.859 19.3187 134.254 18.7059C134.221 18.6749 134.195 18.6377 134.177 18.5963C134.16 18.555 134.15 18.5104 134.15 18.4654C134.15 18.4204 134.16 18.3758 134.177 18.3345C134.195 18.2931 134.221 18.2559 134.254 18.2249L135.44 17.0082C135.469 16.9764 135.505 16.951 135.545 16.9337C135.585 16.9163 135.628 16.9074 135.671 16.9074C135.715 16.9074 135.757 16.9163 135.797 16.9337C135.837 16.951 135.873 16.9764 135.902 17.0082C136.649 17.748 137.654 18.1682 138.705 18.1797C140.079 18.1797 140.984 17.4275 140.984 16.4852C140.984 14.0425 134.489 15.4524 134.489 10.7531L134.491 10.7336ZM155.531 7.50378V12.4405H150.031V7.50378C150.032 7.4614 150.024 7.41934 150.008 7.37998C149.992 7.34062 149.969 7.30475 149.939 7.2744C149.91 7.24406 149.875 7.21984 149.836 7.20312C149.797 7.18641 149.755 7.17753 149.713 7.177H147.626C147.584 7.17753 147.542 7.18641 147.503 7.20312C147.464 7.21984 147.429 7.24406 147.399 7.2744C147.37 7.30475 147.347 7.34062 147.331 7.37998C147.315 7.41934 147.307 7.4614 147.308 7.50378V19.976C147.308 20.1569 147.452 20.3038 147.626 20.3038H149.713C149.887 20.3038 150.031 20.1569 150.031 19.976V14.9612H155.527V19.976C155.527 20.1569 155.671 20.3038 155.845 20.3038H157.931C158.107 20.3038 158.25 20.1569 158.25 19.976V7.50378C158.251 7.4614 158.243 7.41934 158.227 7.37998C158.211 7.34062 158.188 7.30475 158.158 7.2744C158.129 7.24406 158.094 7.21984 158.055 7.20312C158.016 7.18641 157.974 7.17753 157.931 7.177H155.845C155.76 7.17915 155.68 7.21466 155.621 7.27583C155.562 7.337 155.53 7.4189 155.531 7.50378V7.50378ZM31.4468 8.84174C30 6.15965 27.1689 4.48977 24.0901 4.50005H0.796035C0.638724 4.50069 0.485078 4.5476 0.354243 4.63495C0.223407 4.72229 0.121166 4.84621 0.0602592 4.99125C0.000242607 5.13536 -0.0153884 5.29411 0.0153683 5.44716C0.046125 5.60021 0.121869 5.7406 0.232899 5.85034L5.30729 10.8857C5.75533 11.3317 6.36573 11.5814 7.0008 11.5814H23.4222C24.5926 11.569 25.5493 12.496 25.5617 13.65C25.574 14.804 24.6358 15.7494 23.4653 15.7607H12.144C11.9866 15.7608 11.8327 15.8072 11.7015 15.8942C11.5703 15.9812 11.4676 16.1049 11.4062 16.2499C11.3456 16.3941 11.3296 16.5532 11.3602 16.7067C11.3907 16.8602 11.4665 17.001 11.5778 17.111L16.6553 22.1504C17.1061 22.5962 17.7148 22.8459 18.3488 22.8451H23.4694C30.1315 22.8451 35.1689 15.8162 31.4468 8.83866" fill="white"/>
</g>
<defs>
<clipPath id="clip0_32_411">
<rect width="158.25" height="27" fill="white"/>
</clipPath>
</defs>
</svg>
