<svg width="108" height="27" viewBox="0 0 108 27" fill="none" xmlns="http://www.w3.org/2000/svg">
<path fill-rule="evenodd" clip-rule="evenodd" d="M13.9478 10.3372C15.1986 11.5941 16.2212 13.652 15.6359 14.8746C14.0703 18.1444 2.39006 23.8785 1.39776 22.8862C0.405514 21.8939 6.14403 10.2094 9.41384 8.64381C10.6366 8.05832 12.6948 9.08134 13.9517 10.3323C13.9517 10.3323 13.9504 10.334 13.9478 10.3372Z" fill="white"/>
<path fill-rule="evenodd" clip-rule="evenodd" d="M20.1358 8.9568C20.1359 8.95676 20.136 8.95674 20.136 8.95674C19.9326 8.20465 19.4142 7.44485 18.6404 7.35484C17.2213 7.18977 14.9841 9.69886 15.1437 10.2944C15.3033 10.89 18.4637 11.9397 19.6443 11.0912C20.2529 10.6538 20.3385 9.70914 20.1386 8.95607L20.1358 8.9568ZM15.7434 2.00512C16.7978 2.2904 17.8628 3.0171 17.9889 4.10186C18.2203 6.09155 14.7025 9.22809 13.8675 9.00434C13.0324 8.78059 11.5607 4.34954 12.7503 2.69423C13.3635 1.84106 14.6881 1.72101 15.7439 2.00131C15.7439 2.00131 15.7437 2.00259 15.7434 2.00512Z" fill="white"/>
<path fill-rule="evenodd" clip-rule="evenodd" d="M47.1729 13.7834L46.1281 13.6251C45.1326 13.4781 44.5563 13.1559 44.5563 12.5687C44.5563 11.8955 45.3064 11.4774 46.4155 11.4774C47.1998 11.4774 47.8382 11.7714 48.4493 12.0826L48.5709 12.1444C48.7121 12.216 48.8635 12.2522 49.0208 12.2522C49.3836 12.2522 49.7176 12.0552 49.8926 11.7381L49.978 11.5838C50.1133 11.3385 50.1421 11.0559 50.0588 10.7881C49.976 10.5211 49.7929 10.3054 49.5437 10.1805C48.6533 9.73456 47.6876 9.33435 46.4155 9.33435C43.7568 9.33435 42.044 10.6181 42.044 12.6846C42.044 14.3809 43.263 15.4442 45.5698 15.7598L46.6238 15.8969C47.7375 16.0532 48.279 16.3828 48.279 16.9046C48.279 17.3868 48.0184 18.0277 46.2932 18.0277C45.3421 18.0277 44.3764 17.7863 43.5925 17.2897C43.4361 17.1907 43.2555 17.1383 43.0706 17.1383C42.7264 17.1383 42.3997 17.3209 42.218 17.6151L42.1594 17.7101C42.0135 17.9461 41.9697 18.2356 42.039 18.5044C42.1082 18.7727 42.2782 18.9946 42.5176 19.1292C43.8845 19.8978 45.4622 20.1706 46.2932 20.1706C49.0648 20.1706 50.7808 18.9556 50.7808 16.8181C50.7808 15.1076 49.5667 14.1272 47.1729 13.7834Z" fill="white"/>
<path fill-rule="evenodd" clip-rule="evenodd" d="M79.4022 17.5169C79.2021 17.2936 78.915 17.1655 78.6146 17.1655C78.4117 17.1655 78.2137 17.2233 78.0415 17.3326C77.4775 17.6906 76.8593 17.8799 76.2535 17.8799C74.588 17.8799 73.3793 16.5647 73.3793 14.7525C73.3793 12.9403 74.588 11.625 76.2535 11.625C76.8928 11.625 77.4648 11.7987 78.0023 12.1563C78.4185 12.4329 79.0165 12.3621 79.3584 11.9968L79.4472 11.9023C79.6817 11.6521 79.7931 11.3129 79.7533 10.9719C79.7143 10.6369 79.5319 10.3387 79.2531 10.1539C78.4342 9.61086 77.4189 9.32385 76.3168 9.32385C73.1204 9.32385 70.8879 11.5563 70.8879 14.7525C70.8879 17.9489 73.1204 20.1813 76.3168 20.1813C77.4233 20.1813 78.4442 19.8884 79.2692 19.3344C79.5445 19.1493 79.7263 18.8534 79.7677 18.5227C79.8092 18.1892 79.7047 17.8546 79.4808 17.6046L79.4022 17.5169Z" fill="white"/>
<path fill-rule="evenodd" clip-rule="evenodd" d="M27.6725 5.65088C26.8406 5.65088 26.189 6.31087 26.189 7.1534C26.189 7.99918 26.8268 8.63697 27.6725 8.63697C28.5151 8.63697 29.1749 7.98536 29.1749 7.1534C29.1749 6.31087 28.5151 5.65088 27.6725 5.65088Z" fill="white"/>
<path fill-rule="evenodd" clip-rule="evenodd" d="M28.1215 9.41174H27.2462C26.8174 9.41174 26.4698 9.75933 26.4698 10.1881V19.1408C26.4698 19.5697 26.8176 19.9174 27.2465 19.9174H28.1212C28.5501 19.9174 28.8978 19.5697 28.8978 19.1408V10.1881C28.8978 9.75933 28.5502 9.41174 28.1215 9.41174Z" fill="white"/>
<path fill-rule="evenodd" clip-rule="evenodd" d="M56.854 17.8334C55.8719 17.8296 54.7304 17.0598 54.7304 15.7122V11.674H56.8613C57.2902 11.674 57.6379 11.3263 57.6379 10.8974V10.1885C57.6379 9.75954 57.2902 9.41182 56.8613 9.41182H54.7304V7.08135C54.7304 6.65241 54.3827 6.30469 53.9538 6.30469H53.0304C52.6015 6.30469 52.2538 6.65241 52.2538 7.08135V15.5676C52.2538 18.0105 54.1076 20.1707 56.6747 20.1707H56.6756C56.9319 20.1707 57.1733 20.0703 57.3554 19.8881C57.5376 19.706 57.6379 19.4646 57.6379 19.2084L57.638 18.61C57.638 18.1788 57.2852 17.8351 56.854 17.8334Z" fill="white"/>
<path fill-rule="evenodd" clip-rule="evenodd" d="M35.6465 9.32385C32.5395 9.32385 30.8069 11.8088 30.8069 13.9354V19.1408C30.8069 19.5697 31.1546 19.9175 31.5835 19.9175H32.4688C32.8977 19.9175 33.2454 19.5697 33.2454 19.1408V14.3261C33.2454 12.7141 34.2222 11.6463 35.6465 11.6463C37.0709 11.6463 38.0476 12.7141 38.0476 14.3261V19.1408C38.0476 19.5697 38.3954 19.9175 38.8243 19.9175H39.7095C40.1385 19.9175 40.4862 19.5697 40.4862 19.1408V13.9354C40.4862 11.8088 38.7536 9.32385 35.6465 9.32385Z" fill="white"/>
<path fill-rule="evenodd" clip-rule="evenodd" d="M99.5548 9.43172C99.2183 9.35814 98.3737 9.32385 97.9366 9.32385C97.8971 9.32385 97.8584 9.32526 97.8203 9.32526C95.4144 9.32526 93.1935 11.2865 93.1935 13.9897C93.1933 13.9919 93.1927 13.9945 93.1927 13.9964V14.0473V19.1408C93.1927 19.5697 93.5405 19.9175 93.9694 19.9175H94.8546C95.2836 19.9175 95.6313 19.5697 95.6313 19.1408V14.0787C95.6313 12.607 96.6819 11.6477 97.9694 11.6477C98.2051 11.6514 98.4581 11.6779 98.7059 11.7269C98.7733 11.7402 98.8421 11.7469 98.9103 11.7469C99.4013 11.7469 99.827 11.4078 99.9421 10.9301C100.005 10.6678 100.052 10.4724 100.096 10.294C100.139 10.1157 100.109 9.91343 100.007 9.74996C99.9046 9.58604 99.744 9.47296 99.5548 9.43172Z" fill="white"/>
<path fill-rule="evenodd" clip-rule="evenodd" d="M106.047 11.674C106.476 11.674 106.824 11.3263 106.824 10.8974V10.1885C106.824 9.75954 106.476 9.41182 106.047 9.41182H103.916V7.08135C103.916 6.65241 103.569 6.30469 103.14 6.30469H102.216C101.787 6.30469 101.44 6.65241 101.44 7.08135V15.5676C101.44 18.0105 103.294 20.1707 105.861 20.1707H105.862C106.118 20.1707 106.359 20.0703 106.541 19.8881C106.723 19.706 106.824 19.4646 106.824 19.2084V18.61C106.824 18.1788 106.471 17.8351 106.04 17.8334C105.058 17.8296 103.916 17.0598 103.916 15.7122V11.674H106.047V11.674Z" fill="white"/>
<path fill-rule="evenodd" clip-rule="evenodd" d="M89.1537 10.1568C89.1523 10.1559 89.1511 10.1548 89.1497 10.1539C88.3308 9.61086 87.3155 9.32385 86.2134 9.32385C86.1942 9.32385 86.1755 9.32494 86.1564 9.32511C86.1373 9.32494 86.1185 9.32385 86.0994 9.32385C84.9972 9.32385 83.982 9.61086 83.1631 10.1539C83.1617 10.1548 83.1605 10.1559 83.1591 10.1568C81.6848 11.0846 80.7845 12.7238 80.7845 14.7525C80.7845 16.8777 81.7722 18.5757 83.3731 19.4758C84.1195 19.9164 85.0057 20.179 85.9607 20.1797C87.7052 20.181 88.7584 19.1926 89.0897 18.7612V19.1331C89.0897 19.5621 89.4374 19.9098 89.8663 19.9098H90.7516C91.1805 19.9098 91.5282 19.5621 91.5282 19.1331V14.7525C91.5282 12.7238 90.628 11.0846 89.1537 10.1568ZM87.1319 17.717C86.8483 17.8108 86.5595 17.8652 86.2724 17.8772C86.2514 17.8779 86.2304 17.8784 86.2092 17.8787C86.1916 17.8791 86.174 17.8797 86.1564 17.8798C86.1388 17.8797 86.1212 17.8791 86.1035 17.8787C86.0824 17.8784 86.0613 17.8779 86.0404 17.8772C85.7532 17.8652 85.4644 17.8109 85.1808 17.717C84.0361 17.3128 83.2759 16.1892 83.2759 14.7525C83.2759 13.0559 84.3354 11.795 85.8372 11.641C85.8451 11.6402 85.8531 11.6396 85.861 11.6389C85.8949 11.6357 85.9292 11.6333 85.9635 11.6312C85.9829 11.6301 86.0023 11.629 86.0218 11.6282C86.0549 11.6268 86.0883 11.626 86.1218 11.6257C86.1333 11.6256 86.1448 11.6252 86.1564 11.6251C86.168 11.6252 86.1794 11.6256 86.191 11.6257C86.2245 11.626 86.2578 11.6268 86.291 11.6282C86.3105 11.629 86.3299 11.6301 86.3492 11.6312C86.3836 11.6333 86.4178 11.6357 86.4517 11.6389C86.4597 11.6396 86.4676 11.6402 86.4755 11.641C87.9774 11.795 89.0369 13.0559 89.0369 14.7525C89.0369 16.1892 88.2767 17.3128 87.1319 17.717Z" fill="white"/>
<path fill-rule="evenodd" clip-rule="evenodd" d="M67.058 10.1568C67.0566 10.1559 67.0554 10.1548 67.054 10.1539C66.2351 9.61086 65.2198 9.32385 64.1177 9.32385C64.0985 9.32385 64.0798 9.32494 64.0607 9.32511C64.0416 9.32494 64.0228 9.32385 64.0036 9.32385C62.9015 9.32385 61.8863 9.61086 61.0674 10.1539C61.066 10.1548 61.0648 10.1559 61.0634 10.1568C59.5891 11.0846 58.6888 12.7238 58.6888 14.7525C58.6888 16.8777 59.6765 18.5757 61.2774 19.4758C62.0238 19.9164 62.91 20.179 63.865 20.1797C65.6095 20.181 66.6627 19.1926 66.994 18.7612V19.1331C66.994 19.5621 67.3417 19.9098 67.7706 19.9098H68.6559C69.0848 19.9098 69.4325 19.5621 69.4325 19.1331V14.7525C69.4325 12.7238 68.5323 11.0846 67.058 10.1568ZM65.0362 17.717C64.7526 17.8108 64.4638 17.8652 64.1767 17.8772C64.1557 17.8779 64.1347 17.8784 64.1135 17.8787C64.0959 17.8791 64.0783 17.8797 64.0607 17.8798C64.0431 17.8797 64.0254 17.8791 64.0078 17.8787C63.9867 17.8784 63.9656 17.8779 63.9446 17.8772C63.6575 17.8652 63.3687 17.8109 63.0851 17.717C61.9404 17.3128 61.1802 16.1892 61.1802 14.7525C61.1802 13.0559 62.2397 11.795 63.7415 11.641C63.7494 11.6402 63.7574 11.6396 63.7653 11.6389C63.7992 11.6357 63.8335 11.6333 63.8678 11.6312C63.8872 11.6301 63.9066 11.629 63.9261 11.6282C63.9592 11.6268 63.9926 11.626 64.0261 11.6257C64.0376 11.6256 64.0491 11.6252 64.0607 11.6251C64.0723 11.6252 64.0837 11.6256 64.0953 11.6257C64.1288 11.626 64.1621 11.6268 64.1953 11.6282C64.2148 11.629 64.2342 11.6301 64.2535 11.6312C64.2879 11.6333 64.3221 11.6357 64.356 11.6389C64.364 11.6396 64.3719 11.6402 64.3798 11.641C65.8817 11.795 66.9412 13.0559 66.9412 14.7525C66.9412 16.1892 66.181 17.3128 65.0362 17.717Z" fill="white"/>
</svg>
