<svg width="27" height="27" viewBox="0 0 27 27" fill="none" xmlns="http://www.w3.org/2000/svg">
<path fill-rule="evenodd" clip-rule="evenodd" d="M22.4619 0.449213C21.0322 0 19.73 0 17.0831 0H9.14265C6.5109 0 5.19356 0 3.78813 0.437056C3.0209 0.71488 2.32412 1.15797 1.74712 1.73497C1.17013 2.31196 0.727038 3.00874 0.449213 3.77598C0 5.19673 0 6.5109 0 9.14265V17.0831C0 19.7299 0 21.0321 0.437056 22.4497C0.714891 23.2169 1.15799 23.9137 1.73498 24.4907C2.31197 25.0677 3.00875 25.5108 3.77598 25.7886C5.19665 26.2378 6.5109 26.2378 9.14257 26.2378H17.0953C19.73 26.2378 21.0443 26.2378 22.4619 25.7886C23.2291 25.5108 23.9259 25.0677 24.5028 24.4907C25.0798 23.9137 25.5229 23.2169 25.8008 22.4497C26.25 21.0291 26.25 19.7149 26.25 17.0831V9.15472C26.25 6.52006 26.25 5.20572 25.8008 3.78813C25.523 3.0209 25.0799 2.32413 24.5029 1.74714C23.9259 1.17015 23.2291 0.727048 22.4619 0.449213ZM17.3017 9.89236C16.3174 9.05935 15.0702 8.60133 13.7807 8.59935C12.7182 8.59935 11.6558 8.95147 11.6558 9.92884C11.6558 10.8198 12.6018 11.1685 13.767 11.598C13.88 11.6396 13.995 11.682 14.1115 11.7258C16.4153 12.5029 18.3124 13.4559 18.3124 15.7142C18.3124 18.1669 16.4093 19.8424 13.295 20.0336L13.0127 21.3479C12.9869 21.4671 12.921 21.5737 12.8259 21.65C12.7308 21.7262 12.6124 21.7675 12.4906 21.7669H10.5328C10.4536 21.7649 10.3759 21.7457 10.3051 21.7104C10.2342 21.6752 10.172 21.6248 10.1227 21.5628C10.0735 21.5008 10.0385 21.4288 10.0202 21.3518C10.0019 21.2748 10.0007 21.1947 10.0168 21.1172L10.3203 19.73C9.14475 19.4303 8.06408 18.8382 7.17869 18.0089C7.12792 17.96 7.08753 17.9013 7.05995 17.8363C7.03237 17.7714 7.01816 17.7016 7.01816 17.631C7.01816 17.5605 7.03237 17.4907 7.05995 17.4258C7.08753 17.3608 7.12792 17.3021 7.17869 17.2531L8.26538 16.1909C8.36416 16.0938 8.49715 16.0394 8.6357 16.0394C8.77424 16.0394 8.90724 16.0938 9.00602 16.1909C10.0014 17.1406 11.3305 17.6607 12.7061 17.6387C14.1236 17.6387 15.0858 17.0377 15.0858 16.0846C15.0858 15.2229 14.2967 14.9343 12.7994 14.3866C12.6407 14.3285 12.474 14.2675 12.2994 14.2027C10.375 13.5166 8.55372 12.5362 8.55372 10.2566C8.55372 7.6189 10.7574 6.33196 13.3557 6.2044L13.6289 4.86583C13.6551 4.74777 13.7209 4.64221 13.8153 4.56659C13.9097 4.49096 14.027 4.44981 14.148 4.44992H16.0997C16.1782 4.44971 16.2557 4.467 16.3267 4.50052C16.3977 4.53404 16.4603 4.58296 16.51 4.64371C16.5598 4.70447 16.5953 4.77553 16.6141 4.85175C16.6329 4.92796 16.6345 5.00741 16.6188 5.08432L16.3152 6.58084C17.3088 6.90562 18.2295 7.4211 19.0258 8.09842C19.0801 8.14509 19.1242 8.2025 19.1553 8.26704C19.1863 8.33158 19.2037 8.40185 19.2062 8.47342C19.2088 8.545 19.1965 8.61633 19.1702 8.68293C19.1438 8.74953 19.1039 8.80995 19.0531 8.86038L18.0393 9.87721C17.9415 9.97342 17.8106 10.0286 17.6735 10.0314C17.5364 10.0342 17.4033 9.98447 17.3017 9.89236Z" fill="white"/>
</svg>
