<svg width="131" height="27" viewBox="0 0 131 27" fill="none" xmlns="http://www.w3.org/2000/svg">
<path d="M126.346 0.758959C125.308 0.736678 124.074 0.960641 122.677 1.42159C122.467 1.49513 122.301 1.61129 122.152 1.75828C120.73 3.09288 119.347 4.50772 118.04 5.97048L117.94 6.08151C117.912 6.11296 117.909 6.15982 117.929 6.19613C117.95 6.2329 117.991 6.25188 118.033 6.24271L118.18 6.21227C120.286 5.76189 122.413 5.41616 124.5 5.18787C124.637 5.17274 124.779 5.21978 124.881 5.31324C124.984 5.40763 125.043 5.5423 125.041 5.68217C125.006 7.75285 125.08 9.83377 125.264 11.8679L125.277 12.0005C125.282 12.0411 125.31 12.0738 125.35 12.0846C125.358 12.0865 125.365 12.0883 125.374 12.0883C125.405 12.0888 125.436 12.0742 125.454 12.0471L125.531 11.9379C126.707 10.2606 127.987 8.63013 129.332 7.08813C129.482 6.91657 129.522 6.80866 129.55 6.65294C129.974 3.9424 129.32 1.93778 128.735 1.43067C128.228 0.990395 127.491 0.783662 126.346 0.759078L126.346 0.758959ZM123.119 6.24986L122.99 6.26774C120.977 6.54495 118.94 6.929 116.933 7.40855C116.734 7.46412 116.607 7.59337 116.579 7.62345C115.077 9.42176 113.655 11.3145 112.35 13.2541C112.285 13.3521 112.279 13.5872 112.279 13.5872C112.279 13.5872 112.606 16.1136 113.085 17.9749C111.899 21.3857 110.841 25.8799 110.841 25.8799C110.832 25.9091 110.838 25.9395 110.855 25.9641C110.873 25.9887 110.901 26.0043 110.932 26.0053H111.607C111.65 26.0059 111.687 25.98 111.702 25.9408L111.749 25.8136C112.438 23.9343 113.223 22.079 114.091 20.2708C114.293 19.8496 114.72 18.9993 114.72 18.9993C114.79 18.8612 115.117 18.2336 115.191 18.0931L115.203 18.068C117.389 13.9443 120.054 10.0548 123.121 6.50775L123.205 6.41104C123.231 6.38023 123.236 6.33558 123.218 6.30001C123.197 6.26416 123.158 6.24454 123.119 6.24985L123.119 6.24986ZM124.047 7.02711C124.009 7.0129 123.965 7.02252 123.939 7.05398L123.855 7.15247C120.279 11.2881 117.274 15.8784 114.922 20.7956L114.866 20.9102C114.849 20.9465 114.855 20.9902 114.883 21.0194C114.901 21.0387 114.926 21.0496 114.952 21.0499C114.964 21.0503 114.98 21.048 114.992 21.0425L115.11 20.9924C117.119 20.1603 119.17 19.4393 121.208 18.8505C121.33 18.8151 121.432 18.7304 121.489 18.6176C122.383 16.8765 124.457 13.5064 124.457 13.5064C124.51 13.4304 124.498 13.3166 124.498 13.3166C124.498 13.3166 124.134 9.28557 124.111 7.24542L124.109 7.11647C124.107 7.07604 124.084 7.04046 124.047 7.02689L124.047 7.02711ZM118.744 20.5645L118.577 20.6218C117.498 20.9806 115.9 21.532 114.467 22.1907C114.39 22.2267 114.34 22.3268 114.34 22.3268C114.313 22.3881 114.281 22.4648 114.243 22.5507L114.238 22.5614C114.077 22.9268 113.854 23.4767 113.76 23.7004L113.686 23.8777C113.675 23.9058 113.682 23.9371 113.704 23.9583C113.717 23.9709 113.733 23.9773 113.752 23.978C113.762 23.978 113.774 23.9762 113.785 23.9707L113.958 23.8883C114.35 23.7018 114.847 23.4193 115.368 23.172L115.386 23.1628C116.375 22.6934 117.492 22.1635 118.165 21.8429C118.165 21.8424 118.273 21.7845 118.328 21.6763L118.831 20.6663C118.845 20.6399 118.841 20.6082 118.822 20.5857C118.802 20.5637 118.771 20.555 118.743 20.5642L118.744 20.5645Z" fill="white"/>
<path d="M26.3762 3.2196V19.9842H28.4197V18.813H28.4662C29.2471 19.7087 30.6717 20.3299 31.9119 20.3299C35.1273 20.3299 37.1933 17.8031 37.1933 13.8988C37.1933 10.1092 35.0343 7.46762 31.9567 7.46762C30.7395 7.46762 29.4545 8.06584 28.6507 8.98452H28.6041V3.2196H26.3762ZM38.9394 3.2196V5.58539H41.35V3.2196H38.9394ZM56.0264 3.2196V19.9842H58.2543V12.3371C58.2543 10.6835 59.4489 9.53433 61.1484 9.53433C62.825 9.53433 63.79 10.6368 63.79 12.543V19.9842H66.0179V11.9932C66.0179 9.21424 64.3409 7.46762 61.6767 7.46762C60.3217 7.46762 58.9439 8.11062 58.3009 9.02929H58.2543V3.2196H56.0264ZM101.157 3.2196V8.98452H101.111C100.307 8.04288 99.0433 7.46762 97.8261 7.46762C94.7485 7.46762 92.5662 10.1552 92.5662 13.8988C92.5662 17.8031 94.634 20.3299 97.8493 20.3299C99.0896 20.3299 100.512 19.7087 101.293 18.813H101.34V19.9842H103.383V3.2196H101.157ZM0.814697 3.9091V19.9842H3.11064V13.623H6.39515C8.9215 13.623 9.84085 14.6338 9.84085 17.4358V19.9842H12.0687V17.4358C12.0687 14.8695 11.2852 13.3458 9.58474 12.7185C11.3279 12.1079 12.5272 10.6704 12.5272 8.57082C12.5272 5.72293 10.4134 3.9091 7.10614 3.9091H0.814697ZM3.11064 5.99908H6.90018C9.08204 5.99908 10.208 6.93974 10.208 8.80006C10.208 10.5915 9.05938 11.5795 6.92347 11.5795H3.11064V5.99908ZM19.141 7.46762C15.8338 7.46762 13.5605 10.1092 13.5605 13.8988C13.5605 17.7802 15.7649 20.3299 19.141 20.3299C22.4712 20.3299 24.6534 17.7802 24.6534 13.8988C24.6534 10.1092 22.4023 7.46762 19.141 7.46762ZM49.3428 7.46762C48.0566 7.46762 46.6795 8.08881 46.0135 8.98452H45.9669V7.81326H43.7856V19.9842H46.0135V12.3371C46.0135 10.6146 47.1391 9.53433 48.9076 9.53433C50.6531 9.53433 51.4793 10.5465 51.4793 12.6594V19.9842H53.7305V12.0147C53.7305 9.21276 52.0299 7.46762 49.3428 7.46762H49.3428ZM73.2048 7.46762C69.8975 7.46762 67.6243 10.1092 67.6243 13.8988C67.6243 17.7802 69.8286 20.3299 73.2048 20.3299C76.535 20.3299 78.7172 17.7802 78.7172 13.8988C78.7172 10.1092 76.4661 7.46762 73.2048 7.46762ZM85.6766 7.46762C82.3694 7.46762 80.0962 10.1092 80.0962 13.8988C80.0962 17.7802 82.3005 20.3299 85.6766 20.3299C89.0068 20.3299 91.189 17.7802 91.189 13.8988C91.189 10.1092 88.9379 7.46762 85.6766 7.46762ZM39.0308 7.81326V19.9842H41.2586V7.81326H39.0308ZM19.141 9.51283C21.1621 9.51283 22.4488 11.2346 22.4488 13.8988C22.4488 16.5859 21.1621 18.308 19.141 18.308C17.051 18.308 15.7652 16.6088 15.7652 13.8988C15.7652 11.1887 17.051 9.51283 19.141 9.51283V9.51283ZM31.5663 9.51283C33.7481 9.51283 34.9654 11.0968 34.9654 13.8988C34.9654 16.7237 33.7481 18.308 31.5663 18.308C29.8897 18.308 28.6041 17.1607 28.6041 15.6449V12.3837C28.6041 10.753 29.8897 9.51283 31.5663 9.51283V9.51283ZM73.2048 9.51283C75.2258 9.51283 76.5126 11.2346 76.5126 13.8988C76.5126 16.5859 75.2258 18.308 73.2048 18.308C71.1148 18.308 69.8289 16.6088 69.8289 13.8988C69.8289 11.1887 71.1148 9.51283 73.2048 9.51283V9.51283ZM85.6766 9.51283C87.6977 9.51283 88.9844 11.2346 88.9844 13.8988C88.9844 16.5859 87.6977 18.308 85.6766 18.308C83.5866 18.308 82.3008 16.6088 82.3008 13.8988C82.3008 11.1887 83.5866 9.51283 85.6766 9.51283V9.51283ZM98.1932 9.51283C99.8698 9.51283 101.157 10.753 101.157 12.3837V15.6449C101.157 17.1607 99.8698 18.308 98.1932 18.308C96.0114 18.308 94.7941 16.7237 94.7941 13.8988C94.7941 11.0968 96.0114 9.51283 98.1932 9.51283Z" fill="white"/>
</svg>
