<svg width="75" height="27" viewBox="0 0 75 27" fill="none" xmlns="http://www.w3.org/2000/svg">
<g clip-path="url(#clip0_32_506)">
<path d="M10.3127 21.9627C9.1845 22.1608 8.03643 22.2202 6.8488 22.3784L3.22639 11.7688V22.8338C2.09817 22.9525 1.0689 23.1108 0 23.2692V3H3.00879L7.12588 14.5006V3H10.3127V21.9627ZM16.5479 10.4228C17.7752 10.4228 19.6556 10.3634 20.7839 10.3634V13.5304C19.3784 13.5304 17.7356 13.5304 16.5479 13.5898V18.3009C18.4086 18.1822 20.2693 18.0237 22.1496 17.9643V21.0124L13.3808 21.7053V3H22.1496V6.16707H16.5479V10.4228V10.4228ZM33.9271 6.16714H30.6413V20.7356C29.5724 20.7356 28.5035 20.7356 27.4744 20.7751V6.16714H24.1886V3H33.9272L33.9271 6.16714V6.16714ZM39.0735 10.2051H43.4085V13.3721H39.0735V20.5575H35.9656V3H44.8139V6.16707H39.0735V10.2051V10.2051ZM49.9603 17.7862C51.7616 17.8257 53.5826 17.9645 55.3444 18.0633V21.1908C52.5138 21.0125 49.6833 20.8346 46.7933 20.7751V3H49.9603V17.7862ZM58.0165 21.4085C59.026 21.468 60.0949 21.5274 61.1242 21.646V3H58.0165V21.4085V21.4085ZM75 3L70.9817 12.6398L75 23.2692C73.8122 23.1108 72.6246 22.8931 71.4369 22.6951L69.1607 16.8362L66.845 22.2202C65.6967 22.0221 64.5883 21.9627 63.4404 21.8043L67.5179 12.5209L63.8361 3H67.2406L69.319 8.32463L71.536 3H75V3Z" fill="white"/>
</g>
<defs>
<clipPath id="clip0_32_506">
<rect width="75" height="20.2692" fill="white" transform="translate(0 3)"/>
</clipPath>
</defs>
</svg>
