<svg width="27" height="27" viewBox="0 0 27 27" fill="none" xmlns="http://www.w3.org/2000/svg">
<path d="M26.8886 20.5734C26.7712 20.185 26.2096 19.9112 26.2096 19.9112C26.1565 19.8832 26.109 19.8581 26.0699 19.8385C25.1338 19.3859 24.3039 18.841 23.6054 18.2235C23.0438 17.7261 22.5632 17.1785 22.1776 16.5973C21.7054 15.8876 21.4846 15.2952 21.3896 14.9739C21.3365 14.7643 21.3449 14.6805 21.3896 14.5715C21.4259 14.4793 21.5349 14.3927 21.5852 14.3508C21.9009 14.1272 22.4095 13.7975 22.7224 13.5963C22.9935 13.4203 23.2254 13.2694 23.3623 13.1744C23.801 12.8671 24.1028 12.5541 24.2788 12.216C24.5079 11.7801 24.5359 11.2995 24.357 10.8273C24.1167 10.1902 23.5216 9.81022 22.7644 9.81022C22.5967 9.81022 22.4235 9.82978 22.2502 9.8661C21.8171 9.9611 21.4064 10.1148 21.0627 10.2489C21.0375 10.2601 21.0096 10.2405 21.0124 10.2126C21.0487 9.36035 21.0906 8.21474 20.9956 7.1278C20.9118 6.14425 20.7078 5.31438 20.3781 4.59068C20.0456 3.8642 19.6125 3.32771 19.2744 2.93932C18.9531 2.57049 18.3859 2.02562 17.5308 1.53664C16.3293 0.849273 14.9602 0.5 13.4625 0.5C11.9676 0.5 10.6013 0.849273 9.39698 1.53664C8.49166 2.05357 7.91327 2.63755 7.65062 2.93932C7.31252 3.32771 6.87942 3.8642 6.54691 4.59068C6.21441 5.31438 6.01323 6.14146 5.9294 7.1278C5.8344 8.22033 5.87352 9.27373 5.91263 10.2126C5.91263 10.2405 5.88749 10.2601 5.85955 10.2489C5.51586 10.1148 5.10512 9.9611 4.67202 9.8661C4.50157 9.82978 4.32833 9.81022 4.15789 9.81022C3.40346 9.81022 2.8083 10.1902 2.5652 10.8273C2.38638 11.2995 2.41432 11.7801 2.64344 12.216C2.82227 12.5541 3.12125 12.8671 3.55993 13.1744C3.69405 13.2694 3.92876 13.4203 4.1998 13.5963C4.50437 13.7947 4.99894 14.1161 5.31747 14.3368C5.35659 14.3647 5.49071 14.4653 5.53263 14.5715C5.57733 14.6833 5.58571 14.7671 5.52704 14.9906C5.42924 15.3148 5.2085 15.9015 4.74467 16.5973C4.35907 17.1813 3.87847 17.7261 3.31684 18.2235C2.61829 18.841 1.78842 19.3859 0.852369 19.8385C0.807662 19.8609 0.754573 19.886 0.698689 19.9196C0.698689 19.9196 0.139853 20.2046 0.0336737 20.5734C-0.122801 21.1183 0.293533 21.6296 0.715454 21.9034C1.40841 22.3505 2.25226 22.5908 2.74124 22.7221C2.87815 22.7585 3.0011 22.792 3.11286 22.8255C3.18272 22.8479 3.35875 22.9149 3.43419 23.0127C3.5292 23.1357 3.54037 23.2866 3.5739 23.457C3.62699 23.7448 3.74714 24.0997 4.102 24.3456C4.49319 24.6138 4.98776 24.6334 5.61645 24.6585C6.27308 24.6837 7.08898 24.7144 8.02504 25.0245C8.45813 25.167 8.85211 25.4101 9.30477 25.6896C10.2548 26.2735 11.4367 27 13.4541 27C15.4743 27 16.6646 26.2707 17.6203 25.684C18.0729 25.4073 18.4613 25.167 18.886 25.0273C19.8221 24.7172 20.638 24.6864 21.2946 24.6613C21.9233 24.6362 22.4179 24.6194 22.8091 24.3484C23.1891 24.0857 23.298 23.6945 23.3483 23.4011C23.3763 23.2558 23.393 23.1245 23.4769 23.0183C23.5495 22.9261 23.7116 22.8618 23.787 22.8367C23.9016 22.8004 24.0301 22.7668 24.1726 22.7277C24.6616 22.5964 25.2763 22.4427 26.0224 22.0208C26.9221 21.5095 26.9836 20.8836 26.8886 20.5734V20.5734Z" fill="white"/>
</svg>
