<svg width="27" height="27" viewBox="0 0 27 27" fill="none" xmlns="http://www.w3.org/2000/svg">
<path fill-rule="evenodd" clip-rule="evenodd" d="M23.2453 6.76088C24.3253 6.10647 25.1549 5.0702 25.5456 3.83535C24.5346 4.44144 23.415 4.88141 22.2233 5.11853C21.2691 4.09077 19.9094 3.44873 18.4047 3.44873C15.5155 3.44873 13.173 5.81625 13.173 8.7365C13.173 9.15095 13.2192 9.55458 13.3085 9.94159C8.96049 9.72109 5.10553 7.61582 2.52531 4.41656C2.07498 5.19753 1.81692 6.10595 1.81692 7.07508C1.81692 8.9097 2.74053 10.5282 4.14431 11.4765C3.28674 11.449 2.48005 11.2111 1.77472 10.8151C1.77421 10.8371 1.77421 10.8592 1.77421 10.8816C1.77421 13.4436 3.57757 15.5808 5.97087 16.0666C5.53189 16.1875 5.0697 16.2522 4.59259 16.2522C4.25548 16.2522 3.92768 16.219 3.60829 16.1572C4.27397 18.258 6.20598 19.7869 8.49537 19.8295C6.70489 21.2478 4.44916 22.0932 1.99797 22.0932C1.57569 22.0932 1.15928 22.0681 0.75 22.0193C3.06527 23.5196 5.81519 24.3952 8.76962 24.3952C18.3924 24.3952 23.6547 16.3375 23.6547 9.34968C23.6547 9.12041 23.6495 8.89244 23.6394 8.66562C24.6617 7.91996 25.5486 6.98873 26.25 5.92824C25.3119 6.34888 24.3035 6.63317 23.2453 6.76088Z" fill="white"/>
</svg>
