<?xml version="1.0" encoding="UTF-8"?>
<!DOCTYPE svg PUBLIC "-//W3C//DTD SVG 1.1//EN" "http://www.w3.org/Graphics/SVG/1.1/DTD/svg11.dtd">
<svg xmlns="http://www.w3.org/2000/svg" version="1.1" width="1563px" height="313px" style="shape-rendering:geometricPrecision; text-rendering:geometricPrecision; image-rendering:optimizeQuality; fill-rule:evenodd; clip-rule:evenodd" xmlns:xlink="http://www.w3.org/1999/xlink">
<g><path style="opacity:0.957" fill="#fefffe" d="M 742.5,70.5 C 757.618,69.148 770.451,73.8146 781,84.5C 782.373,87.4125 783.873,90.2458 785.5,93C 779.07,97.6291 772.57,102.129 766,106.5C 759.034,96.2552 749.867,93.7552 738.5,99C 732.355,103.694 732.021,108.694 737.5,114C 751.265,119.714 764.265,126.714 776.5,135C 790.007,147.538 793.174,162.371 786,179.5C 778.928,190.632 768.761,197.132 755.5,199C 735.819,202.659 718.986,197.492 705,183.5C 703.368,181.067 701.868,178.567 700.5,176C 706.77,170.401 713.603,165.567 721,161.5C 731.571,174.106 744.404,176.939 759.5,170C 763.88,166.226 764.38,162.059 761,157.5C 759.167,155.667 757.333,153.833 755.5,152C 743.5,145.333 731.5,138.667 719.5,132C 703.594,116.573 702.427,100.073 716,82.5C 723.741,75.8757 732.575,71.8757 742.5,70.5 Z"/></g>
<g><path style="opacity:0.965" fill="#fefffe" d="M 541.5,71.5 C 542.873,71.3433 544.207,71.51 545.5,72C 568.667,94.5 591.833,117 615,139.5C 615.5,117.503 615.667,95.5025 615.5,73.5C 624.167,73.5 632.833,73.5 641.5,73.5C 641.5,115.167 641.5,156.833 641.5,198.5C 640.127,198.657 638.793,198.49 637.5,198C 614.333,175.5 591.167,153 568,130.5C 567.5,152.497 567.333,174.497 567.5,196.5C 558.833,196.5 550.167,196.5 541.5,196.5C 541.5,154.833 541.5,113.167 541.5,71.5 Z"/></g>
<g><path style="opacity:0.963" fill="#fefffe" d="M 1216.5,71.5 C 1255.2,68.0818 1280.37,84.7485 1292,121.5C 1297.05,154.906 1284.55,179.073 1254.5,194C 1225.46,204.28 1200.29,198.446 1179,176.5C 1162.05,153.088 1160.05,128.422 1173,102.5C 1183.22,86.1402 1197.72,75.8068 1216.5,71.5 Z M 1225.5,96.5 C 1250.39,97.5562 1264.05,110.389 1266.5,135C 1264.54,157.961 1252.04,170.794 1229,173.5C 1206.17,170.667 1193.33,157.833 1190.5,135C 1193.01,113.664 1204.68,100.831 1225.5,96.5 Z"/></g>
<g><path style="opacity:0.973" fill="#fefffe" d="M 228.5,73.5 C 253.833,73.5 279.167,73.5 304.5,73.5C 304.5,81.8333 304.5,90.1667 304.5,98.5C 287.833,98.5 271.167,98.5 254.5,98.5C 254.5,106.5 254.5,114.5 254.5,122.5C 268.833,122.5 283.167,122.5 297.5,122.5C 297.5,130.833 297.5,139.167 297.5,147.5C 283.167,147.5 268.833,147.5 254.5,147.5C 254.5,163.833 254.5,180.167 254.5,196.5C 245.833,196.5 237.167,196.5 228.5,196.5C 228.5,155.5 228.5,114.5 228.5,73.5 Z"/></g>
<g><path style="opacity:0.97" fill="#fefffe" d="M 316.5,73.5 C 325.167,73.5 333.833,73.5 342.5,73.5C 342.5,114.5 342.5,155.5 342.5,196.5C 333.833,196.5 325.167,196.5 316.5,196.5C 316.5,155.5 316.5,114.5 316.5,73.5 Z"/></g>
<g><path style="opacity:0.982" fill="#fefffe" d="M 362.5,73.5 C 387.5,73.5 412.5,73.5 437.5,73.5C 437.5,81.8333 437.5,90.1667 437.5,98.5C 421.167,98.5 404.833,98.5 388.5,98.5C 388.5,106.5 388.5,114.5 388.5,122.5C 402.5,122.5 416.5,122.5 430.5,122.5C 430.5,130.833 430.5,139.167 430.5,147.5C 416.5,147.5 402.5,147.5 388.5,147.5C 388.5,163.833 388.5,180.167 388.5,196.5C 379.833,196.5 371.167,196.5 362.5,196.5C 362.5,155.5 362.5,114.5 362.5,73.5 Z"/></g>
<g><path style="opacity:0.971" fill="#fefffe" d="M 442.5,73.5 C 471.5,73.5 500.5,73.5 529.5,73.5C 529.5,81.8333 529.5,90.1667 529.5,98.5C 519.167,98.5 508.833,98.5 498.5,98.5C 498.5,131.167 498.5,163.833 498.5,196.5C 489.833,196.5 481.167,196.5 472.5,196.5C 472.5,163.833 472.5,131.167 472.5,98.5C 462.5,98.5 452.5,98.5 442.5,98.5C 442.5,90.1667 442.5,81.8333 442.5,73.5 Z"/></g>
<g><path style="opacity:0.971" fill="#fefffe" d="M 795.5,73.5 C 824.5,73.5 853.5,73.5 882.5,73.5C 882.5,81.8333 882.5,90.1667 882.5,98.5C 872.167,98.5 861.833,98.5 851.5,98.5C 851.5,131.167 851.5,163.833 851.5,196.5C 842.833,196.5 834.167,196.5 825.5,196.5C 825.5,163.833 825.5,131.167 825.5,98.5C 815.5,98.5 805.5,98.5 795.5,98.5C 795.5,90.1667 795.5,81.8333 795.5,73.5 Z"/></g>
<g><path style="opacity:0.969" fill="#fefffe" d="M 893.5,73.5 C 902.167,73.5 910.833,73.5 919.5,73.5C 919.333,100.502 919.5,127.502 920,154.5C 925.475,171.988 936.642,177.154 953.5,170C 957.458,166.579 960.292,162.412 962,157.5C 963.448,129.537 963.948,101.537 963.5,73.5C 972.167,73.5 980.833,73.5 989.5,73.5C 989.667,101.835 989.5,130.169 989,158.5C 983.723,184.781 967.723,198.447 941,199.5C 920.581,199.062 905.915,189.728 897,171.5C 895.798,168.226 894.798,164.893 894,161.5C 893.5,132.169 893.333,102.835 893.5,73.5 Z"/></g>
<g><path style="opacity:0.972" fill="#fefffe" d="M 1008.5,73.5 C 1024.5,73.3334 1040.5,73.5001 1056.5,74C 1091.46,79.4704 1109.13,99.9704 1109.5,135.5C 1108.9,169.592 1091.9,189.759 1058.5,196C 1041.84,196.5 1025.17,196.667 1008.5,196.5C 1008.5,155.5 1008.5,114.5 1008.5,73.5 Z M 1034.5,98.5 C 1071.74,96.8878 1086.9,114.221 1080,150.5C 1075.28,160.629 1067.44,167.129 1056.5,170C 1049.23,171.3 1041.9,171.8 1034.5,171.5C 1034.5,147.167 1034.5,122.833 1034.5,98.5 Z"/></g>
<g><path style="opacity:0.967" fill="#fefffe" d="M 1123.5,73.5 C 1132.17,73.5 1140.83,73.5 1149.5,73.5C 1149.5,114.5 1149.5,155.5 1149.5,196.5C 1140.83,196.5 1132.17,196.5 1123.5,196.5C 1123.5,155.5 1123.5,114.5 1123.5,73.5 Z"/></g>
<g><path style="opacity:0.944" fill="#fefffe" d="M 1317.5,168.5 C 1333.4,168.321 1339.9,175.988 1337,191.5C 1332.13,199.797 1324.96,202.63 1315.5,200C 1305.62,194.836 1302.78,187.003 1307,176.5C 1309.81,172.853 1313.31,170.186 1317.5,168.5 Z"/></g>
<g><path style="opacity:0.868" fill="#fefffe" d="M 625.5,232.5 C 642.566,232.641 649.066,240.974 645,257.5C 637.861,267.085 629.028,268.918 618.5,263C 611.137,256.058 609.97,248.225 615,239.5C 617.998,236.262 621.498,233.929 625.5,232.5 Z M 628.5,239.5 C 637.076,241.324 639.91,246.324 637,254.5C 633.194,259.555 628.694,260.389 623.5,257C 617.947,249.156 619.613,243.323 628.5,239.5 Z"/></g>
<g><path style="opacity:0.868" fill="#fefffe" d="M 841.5,232.5 C 858.566,232.641 865.066,240.974 861,257.5C 853.861,267.085 845.028,268.918 834.5,263C 827.137,256.058 825.97,248.225 831,239.5C 833.998,236.262 837.498,233.929 841.5,232.5 Z M 844.5,239.5 C 853.076,241.324 855.91,246.324 853,254.5C 849.194,259.555 844.694,260.389 839.5,257C 833.947,249.156 835.613,243.323 844.5,239.5 Z"/></g>
<g><path style="opacity:0.887" fill="#fefffe" d="M 865.5,232.5 C 871.775,237.601 877.942,242.935 884,248.5C 884.499,243.511 884.666,238.511 884.5,233.5C 887.167,233.5 889.833,233.5 892.5,233.5C 892.5,244.167 892.5,254.833 892.5,265.5C 891.448,265.649 890.448,265.483 889.5,265C 884.635,259.8 879.468,254.967 874,250.5C 873.501,255.489 873.334,260.489 873.5,265.5C 870.833,265.5 868.167,265.5 865.5,265.5C 865.5,254.5 865.5,243.5 865.5,232.5 Z"/></g>
<g><path style="opacity:0.876" fill="#fefffe" d="M 1001.5,232.5 C 1002.68,232.281 1003.68,232.614 1004.5,233.5C 1009.17,243.833 1013.83,254.167 1018.5,264.5C 1015.89,265.652 1013.23,265.818 1010.5,265C 1009.83,264 1009.17,263 1008.5,262C 1004.51,261.501 1000.51,261.334 996.5,261.5C 996.67,262.822 996.337,263.989 995.5,265C 992.5,265.667 989.5,265.667 986.5,265C 991.914,254.34 996.914,243.507 1001.5,232.5 Z M 1002.5,249.5 C 1003.73,250.937 1004.73,252.604 1005.5,254.5C 1003.83,255.833 1002.17,255.833 1000.5,254.5C 1001.17,252.805 1001.84,251.138 1002.5,249.5 Z"/></g>
<g><path style="opacity:0.884" fill="#fefffe" d="M 1020.5,232.5 C 1026.78,237.601 1032.94,242.935 1039,248.5C 1039.5,243.511 1039.67,238.511 1039.5,233.5C 1042.17,233.5 1044.83,233.5 1047.5,233.5C 1047.5,244.167 1047.5,254.833 1047.5,265.5C 1046.45,265.649 1045.45,265.483 1044.5,265C 1039.65,259.985 1034.65,255.152 1029.5,250.5C 1028.51,255.456 1028.17,260.456 1028.5,265.5C 1025.83,265.5 1023.17,265.5 1020.5,265.5C 1020.5,254.5 1020.5,243.5 1020.5,232.5 Z"/></g>
<g><path style="opacity:0.876" fill="#fefffe" d="M 1063.5,232.5 C 1069.84,231.946 1075.5,233.613 1080.5,237.5C 1079.23,239.71 1077.73,241.71 1076,243.5C 1067.53,237.58 1061.69,239.58 1058.5,249.5C 1060.1,257.627 1064.77,260.461 1072.5,258C 1073.69,256.981 1074.69,255.814 1075.5,254.5C 1072.91,253.52 1070.25,253.187 1067.5,253.5C 1067.5,251.5 1067.5,249.5 1067.5,247.5C 1072.83,247.5 1078.17,247.5 1083.5,247.5C 1083.54,263.281 1075.87,269.114 1060.5,265C 1052.36,260.558 1049.2,253.725 1051,244.5C 1053.21,238.337 1057.37,234.337 1063.5,232.5 Z"/></g>
<g><path style="opacity:0.895" fill="#fefffe" d="M 481.5,233.5 C 487.176,233.334 492.843,233.501 498.5,234C 505.876,236.726 509.209,242.059 508.5,250C 509.076,256.181 506.743,260.848 501.5,264C 494.924,265.377 488.257,265.877 481.5,265.5C 481.5,254.833 481.5,244.167 481.5,233.5 Z M 489.5,240.5 C 498.649,240.156 502.149,244.49 500,253.5C 497.78,257.692 494.28,259.359 489.5,258.5C 489.5,252.5 489.5,246.5 489.5,240.5 Z"/></g>
<g><path style="opacity:0.913" fill="#fefffe" d="M 511.5,233.5 C 518.5,233.5 525.5,233.5 532.5,233.5C 532.5,235.833 532.5,238.167 532.5,240.5C 528.167,240.5 523.833,240.5 519.5,240.5C 519.5,242.167 519.5,243.833 519.5,245.5C 523.167,245.5 526.833,245.5 530.5,245.5C 530.5,247.833 530.5,250.167 530.5,252.5C 526.833,252.5 523.167,252.5 519.5,252.5C 519.5,254.5 519.5,256.5 519.5,258.5C 523.833,258.5 528.167,258.5 532.5,258.5C 532.5,260.833 532.5,263.167 532.5,265.5C 525.5,265.5 518.5,265.5 511.5,265.5C 511.5,254.833 511.5,244.167 511.5,233.5 Z"/></g>
<g><path style="opacity:0.853" fill="#fefffe" d="M 533.5,233.5 C 536.448,233.223 539.281,233.556 542,234.5C 544.333,239.5 546.667,244.5 549,249.5C 551.665,244.331 553.832,238.998 555.5,233.5C 558.572,233.183 561.572,233.516 564.5,234.5C 559.602,245.397 554.435,256.064 549,266.5C 547.523,265.556 546.523,264.223 546,262.5C 541.821,252.812 537.654,243.145 533.5,233.5 Z"/></g>
<g><path style="opacity:0.91" fill="#fefffe" d="M 566.5,233.5 C 573.5,233.5 580.5,233.5 587.5,233.5C 587.5,235.833 587.5,238.167 587.5,240.5C 583.167,240.5 578.833,240.5 574.5,240.5C 574.5,242.167 574.5,243.833 574.5,245.5C 578.167,245.5 581.833,245.5 585.5,245.5C 585.5,247.833 585.5,250.167 585.5,252.5C 581.833,252.5 578.167,252.5 574.5,252.5C 574.5,254.5 574.5,256.5 574.5,258.5C 578.833,258.5 583.167,258.5 587.5,258.5C 587.5,260.833 587.5,263.167 587.5,265.5C 580.5,265.5 573.5,265.5 566.5,265.5C 566.5,254.833 566.5,244.167 566.5,233.5 Z"/></g>
<g><path style="opacity:0.895" fill="#fefffe" d="M 590.5,233.5 C 593.167,233.5 595.833,233.5 598.5,233.5C 598.5,241.833 598.5,250.167 598.5,258.5C 602.833,258.5 607.167,258.5 611.5,258.5C 611.5,260.833 611.5,263.167 611.5,265.5C 604.5,265.5 597.5,265.5 590.5,265.5C 590.5,254.833 590.5,244.167 590.5,233.5 Z"/></g>
<g><path style="opacity:0.884" fill="#fefffe" d="M 648.5,233.5 C 654.509,233.334 660.509,233.501 666.5,234C 675.356,240.237 675.689,246.903 667.5,254C 663.94,255.237 660.273,255.737 656.5,255.5C 656.5,258.833 656.5,262.167 656.5,265.5C 653.833,265.5 651.167,265.5 648.5,265.5C 648.5,254.833 648.5,244.167 648.5,233.5 Z M 656.5,240.5 C 660.325,239.789 663.325,240.955 665.5,244C 663.622,247.606 660.622,249.106 656.5,248.5C 656.5,245.833 656.5,243.167 656.5,240.5 Z"/></g>
<g><path style="opacity:0.91" fill="#fefffe" d="M 675.5,233.5 C 682.5,233.5 689.5,233.5 696.5,233.5C 696.5,235.833 696.5,238.167 696.5,240.5C 692.167,240.5 687.833,240.5 683.5,240.5C 683.5,242.167 683.5,243.833 683.5,245.5C 687.167,245.5 690.833,245.5 694.5,245.5C 694.5,247.833 694.5,250.167 694.5,252.5C 690.833,252.5 687.167,252.5 683.5,252.5C 683.5,254.5 683.5,256.5 683.5,258.5C 687.833,258.5 692.167,258.5 696.5,258.5C 696.5,260.833 696.5,263.167 696.5,265.5C 689.5,265.5 682.5,265.5 675.5,265.5C 675.5,254.833 675.5,244.167 675.5,233.5 Z"/></g>
<g><path style="opacity:0.912" fill="#fefffe" d="M 699.5,233.5 C 704.844,233.334 710.177,233.501 715.5,234C 723.21,236.24 726.876,241.407 726.5,249.5C 726.811,257.051 723.477,262.217 716.5,265C 710.843,265.499 705.176,265.666 699.5,265.5C 699.5,254.833 699.5,244.167 699.5,233.5 Z M 706.5,240.5 C 716.372,240.527 719.872,245.194 717,254.5C 714.303,257.87 710.803,259.204 706.5,258.5C 706.5,252.5 706.5,246.5 706.5,240.5 Z"/></g>
<g><path style="opacity:0.92" fill="#fefffe" d="M 741.5,233.5 C 746.959,233.103 752.292,233.603 757.5,235C 760.952,238.807 761.285,242.807 758.5,247C 764.467,250.392 765.967,255.226 763,261.5C 761.786,263.049 760.286,264.215 758.5,265C 752.843,265.499 747.176,265.666 741.5,265.5C 741.5,254.833 741.5,244.167 741.5,233.5 Z M 748.5,240.5 C 755.095,242.102 755.095,243.769 748.5,245.5C 748.5,243.833 748.5,242.167 748.5,240.5 Z M 748.5,251.5 C 752.367,250.775 755.034,252.108 756.5,255.5C 756.392,256.442 756.059,257.275 755.5,258C 753.19,258.497 750.857,258.663 748.5,258.5C 748.5,256.167 748.5,253.833 748.5,251.5 Z"/></g>
<g><path style="opacity:0.868" fill="#fefffe" d="M 764.5,234.5 C 767.304,233.362 770.304,233.195 773.5,234C 775.127,236.754 776.627,239.588 778,242.5C 779.753,239.995 781.253,237.329 782.5,234.5C 785.784,233.343 789.118,233.176 792.5,234C 789.207,239.418 786.04,244.918 783,250.5C 782.501,255.489 782.334,260.489 782.5,265.5C 779.833,265.5 777.167,265.5 774.5,265.5C 774.666,260.821 774.499,256.155 774,251.5C 770.97,245.667 767.803,240 764.5,234.5 Z"/></g>
<g><path style="opacity:0.9" fill="#fefffe" d="M 803.5,233.5 C 811.5,233.5 819.5,233.5 827.5,233.5C 827.5,235.833 827.5,238.167 827.5,240.5C 824.833,240.5 822.167,240.5 819.5,240.5C 819.5,248.833 819.5,257.167 819.5,265.5C 816.833,265.5 814.167,265.5 811.5,265.5C 811.5,257.167 811.5,248.833 811.5,240.5C 808.833,240.5 806.167,240.5 803.5,240.5C 803.5,238.167 803.5,235.833 803.5,233.5 Z"/></g>
<g><path style="opacity:0.888" fill="#fefffe" d="M 894.5,233.5 C 897.572,233.183 900.572,233.516 903.5,234.5C 905.2,237.039 906.7,239.705 908,242.5C 909.3,239.705 910.8,237.039 912.5,234.5C 915.5,233.167 918.5,233.167 921.5,234.5C 918.333,240.167 915.167,245.833 912,251.5C 911.501,256.155 911.334,260.821 911.5,265.5C 909.167,265.5 906.833,265.5 904.5,265.5C 904.666,260.821 904.499,256.155 904,251.5C 900.553,245.604 897.386,239.604 894.5,233.5 Z"/></g>
<g><path style="opacity:0.9" fill="#fefffe" d="M 933.5,233.5 C 941.5,233.5 949.5,233.5 957.5,233.5C 957.5,235.833 957.5,238.167 957.5,240.5C 954.833,240.5 952.167,240.5 949.5,240.5C 949.5,248.833 949.5,257.167 949.5,265.5C 946.833,265.5 944.167,265.5 941.5,265.5C 941.5,257.167 941.5,248.833 941.5,240.5C 938.833,240.5 936.167,240.5 933.5,240.5C 933.5,238.167 933.5,235.833 933.5,233.5 Z"/></g>
<g><path style="opacity:0.884" fill="#fefffe" d="M 959.5,233.5 C 962.167,233.5 964.833,233.5 967.5,233.5C 967.5,237.833 967.5,242.167 967.5,246.5C 970.833,246.5 974.167,246.5 977.5,246.5C 977.5,242.167 977.5,237.833 977.5,233.5C 980.167,233.5 982.833,233.5 985.5,233.5C 985.5,244.167 985.5,254.833 985.5,265.5C 982.833,265.5 980.167,265.5 977.5,265.5C 977.5,261.5 977.5,257.5 977.5,253.5C 974.167,253.5 970.833,253.5 967.5,253.5C 967.5,257.5 967.5,261.5 967.5,265.5C 964.833,265.5 962.167,265.5 959.5,265.5C 959.5,254.833 959.5,244.167 959.5,233.5 Z"/></g>
</svg>
